<svg xmlns="http://www.w3.org/2000/svg" xmlns:xlink="http://www.w3.org/1999/xlink"><symbol id="hamburger" viewBox="0 0 60 44"><path d="M0 0h60v4H0zM0 20h60v4H0zM0 40h60v4H0z"/></symbol><symbol id="icon-girl" viewBox="56 -56 512 512"><path d="M479.186 310.807c-6.749-33.805-38.461-39.559-38.561-39.605v.001c-.341-.1 2.909.715-77.341-19.177v-2.723h59.075c12.177 0 22.083-9.907 22.083-22.083V114.554a27.596 27.596 0 0 0 0-12.742V60.693a7.5 7.5 0 0 0-7.501-7.501 7.5 7.5 0 0 0-7.501 7.501V82.22c-3.96-2.364-8.483-4.059-13.357-4.898-1.76-7.817-8.252-13.997-16.485-15.078-8.582-1.128-15.086-6.131-19.331-14.869-1.987-4.091-5.879-6.778-10.409-7.19-4.534-.41-8.827 1.527-11.514 5.185-12.894 17.548-48.739 56.907-110.636 56.905-4.709 0-7.902-.223-9.014-.273-11.374-.685-20.991 8.403-20.991 19.8v17.235c0 27.547 11.428 54.253 31.352 73.269a100.454 100.454 0 0 0 21.67 15.763v6.234H211.92c-3.905 0-7.082-3.177-7.082-7.081V58.672c0-54.643 44.553-99.669 98.371-99.669l.521.002c19.282.103 41.545 5.58 56.716 13.949 9.615 5.307 15.554 1.089 25.049 1.089 23.175 0 41.747 23.83 43.973 45.263.014.314.047 1.571.051 6.387.005 7.241 8.183 7.797 7.507 7.495a7.5 7.5 0 0 0 7.495-7.507c-.001-1.332.01-6.555-.115-7.767-3.016-29.837-28.467-58.873-58.91-58.873-11.89 0-13.743 3.014-17.802.778-17.203-9.491-42.279-15.7-63.883-15.816C241.539-56.4 189.835-4.523 189.835 58.671v168.55c0 12.177 9.907 22.083 22.084 22.083h58.806v2.723l-77.038 19.093c-.102.025-.202.054-.303.083l-5.628 1.66a7.91 7.91 0 0 0-.5.166c-10.044 3.748-27.613 13.639-32.434 37.782-22.83 114.682-21.869 109.785-21.924 110.178-2.75 19.451 6.987 35.01 30.41 35.01h81.115a7.5 7.5 0 0 0 7.501-7.501 7.5 7.5 0 0 0-7.501-7.501h-28.227v-70.75c0-4.144-3.358-7.501-7.501-7.501s-7.501 3.358-7.501 7.501v70.75h-37.886c-9.964 0-15.75-3.208-15.846-13.675-.042-5.106-.243-.129 22.073-113.578 3.359-16.823 15.575-23.85 22.732-26.571l5.202-1.534 44.24-10.965c49.213 57.976 46.299 54.904 49.143 57.678 16.426 16.023 39.864 14.892 55.29-3.224l46.325-54.413 44.071 10.923c1.275.586 23.213 4.445 27.936 28.103 22.124 112.467 22.116 108.451 22.074 113.575-.076 10.252-5.622 13.682-15.846 13.682h-37.617v-70.751c0-4.144-3.357-7.501-7.501-7.501s-7.501 3.358-7.501 7.501v70.75H279.428a7.5 7.5 0 0 0-7.501 7.501 7.5 7.5 0 0 0 7.501 7.501h191.275c18.532 0 30.677-10.197 30.848-28.563.063-8.577-.448-4.479-22.365-116.629zm-62.612-218.01c6.264 1.863 11.095 5.991 12.867 11.089v8.594c-1.772 5.099-6.603 9.227-12.867 11.089V92.797zm0 47.546v-1.385c4.688-.866 9.041-2.526 12.867-4.811v93.074c0 3.905-3.177 7.08-7.081 7.08h-59.076v-5.797c31.804-16.627 53.29-49.918 53.29-88.161zm-157.16 61.109c-16.973-16.201-26.707-38.95-26.707-62.417.446-16.332-1.081-18.311 1.525-20.765a4.733 4.733 0 0 1 3.561-1.295c53.784 3.238 100.044-20.406 130.586-59.994 8.235 14.46 20.312 18.962 29.266 20.139 2.238.294 3.927 2.204 3.927 4.445v58.779c0 74.636-89.352 111.507-142.158 61.108zm75.303 117.95c-10.451 12.277-25.081 12.244-35.507-.062l-15.651-18.473h66.938l-15.78 18.535zm28.554-33.538H270.85l-12.891-15.216 22.074-5.472c3.348-.829 5.696-3.907 5.696-7.355l.001-23.206c20.64 6.88 42.437 6.805 62.552.214.141 23.975-.322 23.426.418 25.541a7.502 7.502 0 0 0 5.277 4.805l22.219 5.507-12.925 15.182z" fill="#412937"/><path d="M272.038 448.497a7.5 7.5 0 0 1 7.501-7.501h138.655v-70.75c0-4.143 3.357-7.501 7.501-7.501s7.501 3.357 7.501 7.501v70.751h37.617c10.224 0 15.77-3.43 15.846-13.682.042-5.124.05-1.108-22.074-113.575-4.723-23.658-26.661-27.517-27.936-28.103l-44.071-10.923-46.325 54.413c-15.426 18.116-38.864 19.247-55.29 3.224-2.844-2.774.07.298-49.143-57.678l-44.24 10.965-5.202 1.534c-7.157 2.721-19.373 9.748-22.732 26.571-22.316 113.449-22.115 108.472-22.073 113.578.096 10.467 5.882 13.675 15.846 13.675h37.886v-70.75c0-4.143 3.358-7.501 7.501-7.501s7.501 3.357 7.501 7.501v70.75h28.227a7.5 7.5 0 0 1 7.501 7.501c0 2.784-3.668 6.207-5.92 7.502h31.75c-2.25-1.294-5.827-4.718-5.827-7.502z" fill="#fb4f5d"/></symbol><symbol id="icon-graduate" viewBox="56 -56 512 512"><style>.st1{fill:#412937}</style><path fill="#503a47" d="M86.848 71.999L312-21.168l225.152 93.167L312 165.166z"/><path class="st1" d="M416.465 387.988c-4.574-1.161-9.207 1.638-10.342 6.204l-8.533 34.133c-1.152 4.582 1.638 9.207 6.212 10.351a8.272 8.272 0 0 0 2.074.256 8.535 8.535 0 0 0 8.269-6.46l8.533-34.133a8.537 8.537 0 0 0-6.213-10.351zM312 217.066a8.453 8.453 0 0 0 3.26-.648l93.867-38.844c4.352-1.801 6.417-6.793 4.617-11.145-1.801-4.361-6.81-6.409-11.153-4.625L312 199.299 73.067 100.432v-2.833a8.536 8.536 0 0 0-8.533-8.533c-4.71 0-8.534 3.823-8.534 8.533v8.533a8.524 8.524 0 0 0 5.274 7.885l247.467 102.4c1.04.435 2.15.649 3.259.649zM413.513 304.49a8.522 8.522 0 0 0-11.426-3.874c-16.205 8.013-43.273 17.331-81.553 18.603v-76.553c0-4.71-3.823-8.533-8.533-8.533s-8.533 3.823-8.533 8.533v76.476c-105.958-3.379-140.151-67.567-145.067-78.251v-57.958a8.536 8.536 0 0 0-8.533-8.533 8.536 8.536 0 0 0-8.533 8.533v59.733c0 1.084.205 2.159.606 3.174 1.485 3.695 37.803 90.692 170.061 90.692 46.225 0 78.618-11.213 97.647-20.617 4.23-2.09 5.963-7.201 3.864-11.425zM440 396.266a8.53 8.53 0 0 0-8.533 8.533v25.6c0 4.71 3.814 8.533 8.533 8.533s8.533-3.823 8.533-8.533v-25.6a8.53 8.53 0 0 0-8.533-8.533z"/><path class="st1" d="M559.467 89.066a8.53 8.53 0 0 0-8.533 8.533v2.816l-102.4 42.146v-15.42l114.193-47.258c3.191-1.314 5.274-4.429 5.274-7.885s-2.082-6.562-5.265-7.885L315.26-38.286a8.54 8.54 0 0 0-6.519 0L61.274 64.114a8.533 8.533 0 0 0 0 15.77l247.467 102.4c1.041.435 2.15.649 3.26.649s2.219-.213 3.26-.649l89.481-37.026c4.361-1.792 6.426-6.784 4.625-11.145-1.801-4.352-6.793-6.409-11.145-4.617L312 165.166 86.848 71.999 312-21.168l225.152 93.167-97.971 40.542-93.841-35.038c.495-1.775.794-3.601.794-5.504 0-14.353-14.993-25.6-34.133-25.6s-34.133 11.247-34.133 25.6 14.993 25.6 34.133 25.6c8.542 0 16.162-2.33 22.084-6.084l97.382 36.361V338.104c-9.907 3.541-17.067 12.919-17.067 24.03 0 14.114 11.486 25.6 25.6 25.6s25.6-11.486 25.6-25.6c0-11.11-7.159-20.488-17.067-24.03v-48.435c24.499-18.492 33.28-43.119 33.664-44.211a8.631 8.631 0 0 0 .469-2.79v-59.733c0-4.71-3.814-8.533-8.533-8.533s-8.533 3.823-8.533 8.533v58.155c-1.476 3.618-6.605 14.771-17.067 25.779v-105.85l114.185-46.993a8.53 8.53 0 0 0 5.282-7.893V97.6a8.53 8.53 0 0 0-8.533-8.534zM312 80.532c-10.419 0-17.067-5.052-17.067-8.533 0-3.482 6.647-8.533 17.067-8.533s17.067 5.052 17.067 8.533c0 3.482-6.648 8.533-17.067 8.533zm128 290.134c-4.71 0-8.533-3.831-8.533-8.533S435.29 353.6 440 353.6s8.533 3.831 8.533 8.533c0 4.701-3.823 8.533-8.533 8.533zM473.877 394.192c-1.143-4.565-5.786-7.356-10.342-6.204a8.535 8.535 0 0 0-6.212 10.351l8.533 34.133a8.535 8.535 0 0 0 8.269 6.46c.683 0 1.382-.077 2.074-.256a8.531 8.531 0 0 0 6.212-10.351l-8.534-34.133z"/><circle cx="440" cy="362.133" r="8.533" fill="#fb4f5d"/></symbol><symbol id="icon-work" viewBox="56 -56 512 512"><style>.st1{fill:#412937}</style><path fill="#503a47" d="M73.067 276.8h477.867V333H73.067z"/><path class="st1" d="M533.858-47.467H90.142C71.317-47.467 56-32.149 56-13.325v281.591a8.536 8.536 0 0 0 8.533 8.533h494.933a8.536 8.536 0 0 0 8.533-8.533V-13.325c.001-18.824-15.316-34.142-34.141-34.142zm17.075 307.2H73.067V-13.325c0-9.421 7.663-17.075 17.075-17.075h443.716c9.412 0 17.075 7.654 17.075 17.075v273.058z"/><path class="st1" d="M559.467 259.733H64.533A8.536 8.536 0 0 0 56 268.266v42.658c0 18.825 15.317 34.142 34.142 34.142h443.716c18.825 0 34.142-15.317 34.142-34.142v-42.658a8.536 8.536 0 0 0-8.533-8.533zm-8.534 51.192c0 9.421-7.663 17.075-17.075 17.075H90.142c-9.412 0-17.075-7.654-17.075-17.075V276.8h477.867l-.001 34.125z"/><path class="st1" d="M337.6 293.867h-51.2c-4.71 0-8.533 3.823-8.533 8.533s3.823 8.533 8.533 8.533h51.2c4.71 0 8.533-3.823 8.533-8.533s-3.823-8.533-8.533-8.533zM525.333-13.333H98.667A8.536 8.536 0 0 0 90.134-4.8v273.067a8.536 8.536 0 0 0 8.533 8.533h426.667a8.536 8.536 0 0 0 8.533-8.533V-4.8c0-4.71-3.823-8.533-8.534-8.533zM516.8 259.733H107.2v-256h409.6v256zM422.933 396.267H201.067c-14.114 0-25.6 11.486-25.6 25.6s11.486 25.6 25.6 25.6h221.867c14.114 0 25.6-11.486 25.6-25.6s-11.487-25.6-25.601-25.6zm0 34.133H201.067c-4.71 0-8.533-3.831-8.533-8.533s3.823-8.533 8.533-8.533h221.867c4.71 0 8.533 3.831 8.533 8.533s-3.823 8.533-8.534 8.533z"/><path class="st1" d="M405.867 396.267c-28.314 0-42.667-20.096-42.667-59.733a8.536 8.536 0 0 0-8.533-8.533h-85.333a8.536 8.536 0 0 0-8.533 8.533c0 39.637-14.353 59.733-42.667 59.733-4.71 0-8.533 3.823-8.533 8.533s3.823 8.533 8.533 8.533h187.733c4.71 0 8.533-3.823 8.533-8.533s-3.823-8.533-8.533-8.533zm-146.168 0c10.505-11.639 16.691-28.971 17.937-51.2h68.736c1.237 22.229 7.424 39.561 17.937 51.2h-104.61zM463.757 203.959l-20.599-20.599 11.46-11.46a8.542 8.542 0 0 0 2.244-8.124 8.543 8.543 0 0 0-5.82-6.084l-85.333-25.6a8.52 8.52 0 0 0-8.482 2.142 8.508 8.508 0 0 0-2.142 8.482l25.6 85.333a8.525 8.525 0 0 0 6.084 5.828c2.901.717 5.999-.12 8.124-2.244l12.066-12.075 20.599 20.608c1.596 1.604 3.772 2.5 6.033 2.5s4.437-.896 6.033-2.5l24.132-24.141a8.524 8.524 0 0 0 .001-12.066zm-30.166 18.108l-18.756-18.765a11.1 11.1 0 0 0-7.876-3.26 11.13 11.13 0 0 0-7.876 3.251l-6.161 6.161-16.939-56.465 56.465 16.939-6.605 6.605a9.61 9.61 0 0 0-2.816 6.827 9.568 9.568 0 0 0 2.833 6.835l19.797 19.797-12.066 12.075zM414.4 20.8H175.467a8.536 8.536 0 0 0-8.533 8.533V72a8.536 8.536 0 0 0 8.533 8.533H414.4A8.536 8.536 0 0 0 422.933 72V29.333A8.536 8.536 0 0 0 414.4 20.8zm-8.533 42.667H184v-25.6h221.867v25.6zM277.867 114.667H209.6a8.536 8.536 0 0 0-8.533 8.533v34.133a8.536 8.536 0 0 0 8.533 8.533h68.267a8.536 8.536 0 0 0 8.533-8.533V123.2a8.536 8.536 0 0 0-8.533-8.533zm-8.534 34.133h-51.2v-17.067h51.2V148.8z"/><path class="st1" d="M414.4 20.8H175.467a8.536 8.536 0 0 0-8.533 8.533v162.133a8.536 8.536 0 0 0 8.533 8.533h203.145a8.5 8.5 0 0 0 6.844-3.439 8.533 8.533 0 0 0 1.331-7.552l-10.803-36.019 35.968 10.795a8.51 8.51 0 0 0 7.543-1.331 8.512 8.512 0 0 0 3.439-6.844V29.333c-.001-4.71-3.824-8.533-8.534-8.533zm-8.533 123.341L365.7 132.092a8.52 8.52 0 0 0-8.482 2.142 8.524 8.524 0 0 0-2.142 8.491l12.066 40.209H184V37.867h221.867v106.274z"/><path fill="#fb4f5d" d="M375.984 152.989l16.938 56.465 14.037-9.412 26.632 22.025 12.066-12.075-22.63-26.632 9.421-13.432z"/></symbol><symbol id="logo" viewBox="0 0 132 38"><style>.st0{fill:#393942}</style><path class="st0" d="M11.5 32.3C21.8 28.8 19 6.2 14.3 3l.3-.4h.8s3.4 2.4 4.4 4.9c-.9-3.1-3.7-5-3.6-5 12.6 2.8 12.9 35-1.1 34.4C1.1 36.2.7 20.1.7 15.9.8 11.6 2.5 5.2 2.5 5.2s-.4-1.3-.1-1.5c1.3-1.2 7.9-1.1 7.9 3.2 0 1.3-4.5 17.8 1.2 25.4z"/><path class="st0" d="M44.6 24.6c1.8 3.3 2.6 7.4 2 10.3.3-4.5-1.7-7.6-1.7-7.6s1.8 6.1 1.2 8.2c-.1-.1-.2-.3-.2-.3s-.6 1-.9 1c-.3 0-1.2.3-1.2.3l-.5-.5c-1-3.7-3.2-7.1-5.3-9.8-1.7.2-3.3.3-4.3.3h-.3c-.2 3-.3 4.9-.3 4.9s-.3.6-.8 1.3c-.3.4-1 1.9-1 1.9s-.6.2-.9.6c-.1.1-.4 1-.4 1h-.4l-.6.9s-.3-.2-.4-.2c-.2.1-.4.6-.6.6-.1-.8-.3-6.4-.5-12.8-1.5-.9-2.8-2.4-3.5-4.7 0-.2-.3-1.3-.2-2 .2 1.3 1 3.1 1.4 3.5-.9-1.8-1.2-3.6-1-4.7.2.7 1.3 1.6 3 2.3-.1-3.2-.3-6.3-.4-8.9-1 .1-1.9.3-2.9.6-1.5-.6-3-4.7-1.3-6.2 1.8-1.4 28.6-7.5 28.4 11 0 4.8-2.9 7.5-6.4 9zm-10.5-15v1.7c0 3-.2 6.2-.4 9.2 5.8 0 13.2-3.1 13.5-6.2.3-2.7-4.5-5-13.1-4.7z"/><path class="st0" d="M62.3 36c-6.5 0-13.2-4.8-12.9-15.3C50 2.3 70.2 0 70.1 6.2c0 2.1-1.2 5.4-2.7 6-7.6-3.9-14 3.2-14.2 9.1-.1 3 3.6 7.3 8.7 7.3 6.1 0 10.8-6.1 10.8-8.5 0-1.8 1.1 0 1.1 0C76.2 28.7 70.7 36 62.3 36z"/><path class="st0" d="M96.1 11.8c-1.3 10.2-1.2 19.4-1.2 19.4l-.2.5h-.3l-.3 1.5h-.3l-.3-.2-.7 3-.5-.4-.3.4h-.6s-.1.7-.3.8h-.3c-1.1-2.7-1.7-6.4-2.1-10.6l-.6.3c-1.9 0-5.7.7-8.4 1.2-.1 2.2-.2 3.5-.2 3.5l-.3-.4L79 32l-.6.1-.8 1.9-1.4.9-.8 1.1-.4-.2-.4 1.3s-.4.5-.6.6c-.3-2-.4-28.7-1.5-34.3 0-.2.1-.6.7-.8 2.1-.7 7.8-1.6 7.5 7.2-.1 3.7-.3 7.6-.5 11.1 2.6-.3 5.7-.3 8.2-.1-.4-7.5 0-15 .5-17.8 2.1-.9 6.9-.9 7.7 1.3.4 1.4 0 3.4-.5 7.5zM105 10.5c-.4 9.9-1.4 21.6-1.4 21.6l-.3-.4-.2 1.2-.6.1-.6 1.8-1.4.8-.8 1.1-.4-.3-.4 1.3s-.4.5-.6.5c-.3-2-.2-29-1.3-34.8 0-.2.2-.6.7-.7 2-.5 7.6-1.1 7.3 7.8zM130.4 35c-.7 1.9-5.9 4.3-7.2-1.3-3.3-5.2-6.7-12.2-9.7-18.3-.6 8.3-1.4 16-1.4 16l-.3-.1-1.2 2.5-.7.4-.6 1.7-.6-.5-.7 1.8s-.6 0-.9.1c-.2.1-.3.2-.6.6-.3-2.1.3-31-.9-35.2 0 0 .8-.3 2-.4 2.6-1.2 6.3-1 7.5 2.2 2.4 6.7 5.9 14.7 8 19.4.6-9.1 2-20.7 2.8-23.9.1.1.2 1.1.3 1.2.1.1.3-.7.4-.6.1.1.5 1.8.6 2 .3.3.9.1.9.1s1.2 2.4 2 4.7c0 .1.1.3.1.5-1.3 24.5.7 25.7.2 27.1z"/></symbol><symbol id="logo_white" viewBox="0 0 132 38"><style>.st0{fill:#fff}</style><path class="st0" d="M11.5 32.3C21.8 28.8 19 6.2 14.3 3l.3-.4h.8s3.4 2.4 4.4 4.9c-.9-3.1-3.7-5-3.6-5 12.6 2.8 12.9 35-1.1 34.4C1.1 36.2.7 20.1.7 15.9.8 11.6 2.5 5.2 2.5 5.2s-.4-1.3-.1-1.5c1.3-1.2 7.9-1.1 7.9 3.2 0 1.3-4.5 17.8 1.2 25.4z"/><path class="st0" d="M44.6 24.6c1.8 3.3 2.6 7.4 2 10.3.3-4.5-1.7-7.6-1.7-7.6s1.8 6.1 1.2 8.2c-.1-.1-.2-.3-.2-.3s-.6 1-.9 1c-.3 0-1.2.3-1.2.3l-.5-.5c-1-3.7-3.2-7.1-5.3-9.8-1.7.2-3.3.3-4.3.3h-.3c-.2 3-.3 4.9-.3 4.9s-.3.6-.8 1.3c-.3.4-1 1.9-1 1.9s-.6.2-.9.6c-.1.1-.4 1-.4 1h-.4l-.6.9s-.3-.2-.4-.2c-.2.1-.4.6-.6.6-.1-.8-.3-6.4-.5-12.8-1.5-.9-2.8-2.4-3.5-4.7 0-.2-.3-1.3-.2-2 .2 1.3 1 3.1 1.4 3.5-.9-1.8-1.2-3.6-1-4.7.2.7 1.3 1.6 3 2.3-.1-3.2-.3-6.3-.4-8.9-1 .1-1.9.3-2.9.6-1.5-.6-3-4.7-1.3-6.2 1.8-1.4 28.6-7.5 28.4 11 0 4.8-2.9 7.5-6.4 9zm-10.5-15v1.7c0 3-.2 6.2-.4 9.2 5.8 0 13.2-3.1 13.5-6.2.3-2.7-4.5-5-13.1-4.7z"/><path class="st0" d="M62.3 36c-6.5 0-13.2-4.8-12.9-15.3C50 2.3 70.2 0 70.1 6.2c0 2.1-1.2 5.4-2.7 6-7.6-3.9-14 3.2-14.2 9.1-.1 3 3.6 7.3 8.7 7.3 6.1 0 10.8-6.1 10.8-8.5 0-1.8 1.1 0 1.1 0C76.2 28.7 70.7 36 62.3 36z"/><path class="st0" d="M96.1 11.8c-1.3 10.2-1.2 19.4-1.2 19.4l-.2.5h-.3l-.3 1.5h-.3l-.3-.2-.7 3-.5-.4-.3.4h-.6s-.1.7-.3.8h-.3c-1.1-2.7-1.7-6.4-2.1-10.6l-.6.3c-1.9 0-5.7.7-8.4 1.2-.1 2.2-.2 3.5-.2 3.5l-.3-.4L79 32l-.6.1-.8 1.9-1.4.9-.8 1.1-.4-.2-.4 1.3s-.4.5-.6.6c-.3-2-.4-28.7-1.5-34.3 0-.2.1-.6.7-.8 2.1-.7 7.8-1.6 7.5 7.2-.1 3.7-.3 7.6-.5 11.1 2.6-.3 5.7-.3 8.2-.1-.4-7.5 0-15 .5-17.8 2.1-.9 6.9-.9 7.7 1.3.4 1.4 0 3.4-.5 7.5zM105 10.5c-.4 9.9-1.4 21.6-1.4 21.6l-.3-.4-.2 1.2-.6.1-.6 1.8-1.4.8-.8 1.1-.4-.3-.4 1.3s-.4.5-.6.5c-.3-2-.2-29-1.3-34.8 0-.2.2-.6.7-.7 2-.5 7.6-1.1 7.3 7.8zM130.4 35c-.7 1.9-5.9 4.3-7.2-1.3-3.3-5.2-6.7-12.2-9.7-18.3-.6 8.3-1.4 16-1.4 16l-.3-.1-1.2 2.5-.7.4-.6 1.7-.6-.5-.7 1.8s-.6 0-.9.1c-.2.1-.3.2-.6.6-.3-2.1.3-31-.9-35.2 0 0 .8-.3 2-.4 2.6-1.2 6.3-1 7.5 2.2 2.4 6.7 5.9 14.7 8 19.4.6-9.1 2-20.7 2.8-23.9.1.1.2 1.1.3 1.2.1.1.3-.7.4-.6.1.1.5 1.8.6 2 .3.3.9.1.9.1s1.2 2.4 2 4.7c0 .1.1.3.1.5-1.3 24.5.7 25.7.2 27.1z"/></symbol><symbol id="loop" viewBox="0 0 69.3 73.3"><circle cx="28.7" cy="28.8" r="27.2" fill="none" stroke="#000" stroke-width="3" stroke-miterlimit="10"/><path d="M68.5 72.6c-.7.7-1.9.7-2.6 0L45.4 52.2c-.7-.7-.7-1.9 0-2.6.7-.7 1.9-.7 2.6 0L68.5 70c.7.7.7 1.9 0 2.6z"/></symbol><symbol id="next" viewBox="0 0 15 24"><path d="M.2 2.8L3 0l12 12L3 24 .2 21.2 9.4 12 .2 2.8z"/></symbol><symbol id="previous" viewBox="0 0 15 24"><path d="M14.8 21.2L12 24 0 12 12 0l2.8 2.8L5.6 12l9.2 9.2z"/></symbol></svg>