<svg xmlns="http://www.w3.org/2000/svg" xmlns:xlink="http://www.w3.org/1999/xlink"><symbol id="hamburger" viewBox="0 0 60 44"><path d="M0 0h60v4H0zM0 20h60v4H0zM0 40h60v4H0z"/></symbol><symbol id="logo" viewBox="0 0 132 38"><style>.st0{fill:#393942}</style><path class="st0" d="M11.5 32.3C21.8 28.8 19 6.2 14.3 3l.3-.4h.8s3.4 2.4 4.4 4.9c-.9-3.1-3.7-5-3.6-5 12.6 2.8 12.9 35-1.1 34.4C1.1 36.2.7 20.1.7 15.9.8 11.6 2.5 5.2 2.5 5.2s-.4-1.3-.1-1.5c1.3-1.2 7.9-1.1 7.9 3.2 0 1.3-4.5 17.8 1.2 25.4z"/><path class="st0" d="M44.6 24.6c1.8 3.3 2.6 7.4 2 10.3.3-4.5-1.7-7.6-1.7-7.6s1.8 6.1 1.2 8.2c-.1-.1-.2-.3-.2-.3s-.6 1-.9 1c-.3 0-1.2.3-1.2.3l-.5-.5c-1-3.7-3.2-7.1-5.3-9.8-1.7.2-3.3.3-4.3.3h-.3c-.2 3-.3 4.9-.3 4.9s-.3.6-.8 1.3c-.3.4-1 1.9-1 1.9s-.6.2-.9.6c-.1.1-.4 1-.4 1h-.4l-.6.9s-.3-.2-.4-.2c-.2.1-.4.6-.6.6-.1-.8-.3-6.4-.5-12.8-1.5-.9-2.8-2.4-3.5-4.7 0-.2-.3-1.3-.2-2 .2 1.3 1 3.1 1.4 3.5-.9-1.8-1.2-3.6-1-4.7.2.7 1.3 1.6 3 2.3-.1-3.2-.3-6.3-.4-8.9-1 .1-1.9.3-2.9.6-1.5-.6-3-4.7-1.3-6.2 1.8-1.4 28.6-7.5 28.4 11 0 4.8-2.9 7.5-6.4 9zm-10.5-15v1.7c0 3-.2 6.2-.4 9.2 5.8 0 13.2-3.1 13.5-6.2.3-2.7-4.5-5-13.1-4.7z"/><path class="st0" d="M62.3 36c-6.5 0-13.2-4.8-12.9-15.3C50 2.3 70.2 0 70.1 6.2c0 2.1-1.2 5.4-2.7 6-7.6-3.9-14 3.2-14.2 9.1-.1 3 3.6 7.3 8.7 7.3 6.1 0 10.8-6.1 10.8-8.5 0-1.8 1.1 0 1.1 0C76.2 28.7 70.7 36 62.3 36z"/><path class="st0" d="M96.1 11.8c-1.3 10.2-1.2 19.4-1.2 19.4l-.2.5h-.3l-.3 1.5h-.3l-.3-.2-.7 3-.5-.4-.3.4h-.6s-.1.7-.3.8h-.3c-1.1-2.7-1.7-6.4-2.1-10.6l-.6.3c-1.9 0-5.7.7-8.4 1.2-.1 2.2-.2 3.5-.2 3.5l-.3-.4L79 32l-.6.1-.8 1.9-1.4.9-.8 1.1-.4-.2-.4 1.3s-.4.5-.6.6c-.3-2-.4-28.7-1.5-34.3 0-.2.1-.6.7-.8 2.1-.7 7.8-1.6 7.5 7.2-.1 3.7-.3 7.6-.5 11.1 2.6-.3 5.7-.3 8.2-.1-.4-7.5 0-15 .5-17.8 2.1-.9 6.9-.9 7.7 1.3.4 1.4 0 3.4-.5 7.5zM105 10.5c-.4 9.9-1.4 21.6-1.4 21.6l-.3-.4-.2 1.2-.6.1-.6 1.8-1.4.8-.8 1.1-.4-.3-.4 1.3s-.4.5-.6.5c-.3-2-.2-29-1.3-34.8 0-.2.2-.6.7-.7 2-.5 7.6-1.1 7.3 7.8zM130.4 35c-.7 1.9-5.9 4.3-7.2-1.3-3.3-5.2-6.7-12.2-9.7-18.3-.6 8.3-1.4 16-1.4 16l-.3-.1-1.2 2.5-.7.4-.6 1.7-.6-.5-.7 1.8s-.6 0-.9.1c-.2.1-.3.2-.6.6-.3-2.1.3-31-.9-35.2 0 0 .8-.3 2-.4 2.6-1.2 6.3-1 7.5 2.2 2.4 6.7 5.9 14.7 8 19.4.6-9.1 2-20.7 2.8-23.9.1.1.2 1.1.3 1.2.1.1.3-.7.4-.6.1.1.5 1.8.6 2 .3.3.9.1.9.1s1.2 2.4 2 4.7c0 .1.1.3.1.5-1.3 24.5.7 25.7.2 27.1z"/></symbol><symbol id="logo_white" viewBox="0 0 132 38"><style>.st0{fill:#fff}</style><path class="st0" d="M11.5 32.3C21.8 28.8 19 6.2 14.3 3l.3-.4h.8s3.4 2.4 4.4 4.9c-.9-3.1-3.7-5-3.6-5 12.6 2.8 12.9 35-1.1 34.4C1.1 36.2.7 20.1.7 15.9.8 11.6 2.5 5.2 2.5 5.2s-.4-1.3-.1-1.5c1.3-1.2 7.9-1.1 7.9 3.2 0 1.3-4.5 17.8 1.2 25.4z"/><path class="st0" d="M44.6 24.6c1.8 3.3 2.6 7.4 2 10.3.3-4.5-1.7-7.6-1.7-7.6s1.8 6.1 1.2 8.2c-.1-.1-.2-.3-.2-.3s-.6 1-.9 1c-.3 0-1.2.3-1.2.3l-.5-.5c-1-3.7-3.2-7.1-5.3-9.8-1.7.2-3.3.3-4.3.3h-.3c-.2 3-.3 4.9-.3 4.9s-.3.6-.8 1.3c-.3.4-1 1.9-1 1.9s-.6.2-.9.6c-.1.1-.4 1-.4 1h-.4l-.6.9s-.3-.2-.4-.2c-.2.1-.4.6-.6.6-.1-.8-.3-6.4-.5-12.8-1.5-.9-2.8-2.4-3.5-4.7 0-.2-.3-1.3-.2-2 .2 1.3 1 3.1 1.4 3.5-.9-1.8-1.2-3.6-1-4.7.2.7 1.3 1.6 3 2.3-.1-3.2-.3-6.3-.4-8.9-1 .1-1.9.3-2.9.6-1.5-.6-3-4.7-1.3-6.2 1.8-1.4 28.6-7.5 28.4 11 0 4.8-2.9 7.5-6.4 9zm-10.5-15v1.7c0 3-.2 6.2-.4 9.2 5.8 0 13.2-3.1 13.5-6.2.3-2.7-4.5-5-13.1-4.7z"/><path class="st0" d="M62.3 36c-6.5 0-13.2-4.8-12.9-15.3C50 2.3 70.2 0 70.1 6.2c0 2.1-1.2 5.4-2.7 6-7.6-3.9-14 3.2-14.2 9.1-.1 3 3.6 7.3 8.7 7.3 6.1 0 10.8-6.1 10.8-8.5 0-1.8 1.1 0 1.1 0C76.2 28.7 70.7 36 62.3 36z"/><path class="st0" d="M96.1 11.8c-1.3 10.2-1.2 19.4-1.2 19.4l-.2.5h-.3l-.3 1.5h-.3l-.3-.2-.7 3-.5-.4-.3.4h-.6s-.1.7-.3.8h-.3c-1.1-2.7-1.7-6.4-2.1-10.6l-.6.3c-1.9 0-5.7.7-8.4 1.2-.1 2.2-.2 3.5-.2 3.5l-.3-.4L79 32l-.6.1-.8 1.9-1.4.9-.8 1.1-.4-.2-.4 1.3s-.4.5-.6.6c-.3-2-.4-28.7-1.5-34.3 0-.2.1-.6.7-.8 2.1-.7 7.8-1.6 7.5 7.2-.1 3.7-.3 7.6-.5 11.1 2.6-.3 5.7-.3 8.2-.1-.4-7.5 0-15 .5-17.8 2.1-.9 6.9-.9 7.7 1.3.4 1.4 0 3.4-.5 7.5zM105 10.5c-.4 9.9-1.4 21.6-1.4 21.6l-.3-.4-.2 1.2-.6.1-.6 1.8-1.4.8-.8 1.1-.4-.3-.4 1.3s-.4.5-.6.5c-.3-2-.2-29-1.3-34.8 0-.2.2-.6.7-.7 2-.5 7.6-1.1 7.3 7.8zM130.4 35c-.7 1.9-5.9 4.3-7.2-1.3-3.3-5.2-6.7-12.2-9.7-18.3-.6 8.3-1.4 16-1.4 16l-.3-.1-1.2 2.5-.7.4-.6 1.7-.6-.5-.7 1.8s-.6 0-.9.1c-.2.1-.3.2-.6.6-.3-2.1.3-31-.9-35.2 0 0 .8-.3 2-.4 2.6-1.2 6.3-1 7.5 2.2 2.4 6.7 5.9 14.7 8 19.4.6-9.1 2-20.7 2.8-23.9.1.1.2 1.1.3 1.2.1.1.3-.7.4-.6.1.1.5 1.8.6 2 .3.3.9.1.9.1s1.2 2.4 2 4.7c0 .1.1.3.1.5-1.3 24.5.7 25.7.2 27.1z"/></symbol><symbol id="loop" viewBox="0 0 69.3 73.3"><circle cx="28.7" cy="28.8" r="27.2" fill="none" stroke="#000" stroke-width="3" stroke-miterlimit="10"/><path d="M68.5 72.6c-.7.7-1.9.7-2.6 0L45.4 52.2c-.7-.7-.7-1.9 0-2.6.7-.7 1.9-.7 2.6 0L68.5 70c.7.7.7 1.9 0 2.6z"/></symbol><symbol id="next" viewBox="0 0 15 24"><path d="M.2 2.8L3 0l12 12L3 24 .2 21.2 9.4 12 .2 2.8z"/></symbol><symbol id="previous" viewBox="0 0 15 24"><path d="M14.8 21.2L12 24 0 12 12 0l2.8 2.8L5.6 12l9.2 9.2z"/></symbol></svg>