<?xml version="1.0" encoding="utf-8"?>
<!-- Generator: Adobe Illustrator 19.0.1, SVG Export Plug-In . SVG Version: 6.00 Build 0)  -->
<svg version="1.1" id="icon-work" xmlns="http://www.w3.org/2000/svg" xmlns:xlink="http://www.w3.org/1999/xlink" x="0px" y="0px"
	 width="512px" height="512px" viewBox="56 -56 512 512" style="enable-background:new 56 -56 512 512;" xml:space="preserve">
<style type="text/css">
	.st0{fill:#503A47;}
	.st1{fill:#412937;}
	.st2{fill:#FB4F5D;}
</style>
<rect x="73.067" y="276.8" class="st0" width="477.867" height="56.2"/>
<g>
	<g>
		<path class="st1" d="M533.858-47.467H90.142C71.317-47.467,56-32.149,56-13.325v281.591c0,4.71,3.823,8.533,8.533,8.533h494.933
			c4.71,0,8.533-3.823,8.533-8.533V-13.325C568-32.149,552.683-47.467,533.858-47.467z M550.933,259.733H73.067V-13.325
			c0-9.421,7.663-17.075,17.075-17.075h443.716c9.412,0,17.075,7.654,17.075,17.075V259.733z"/>
	</g>
</g>
<g>
	<g>
		<path class="st1" d="M559.467,259.733H64.533c-4.71,0-8.533,3.823-8.533,8.533v42.658c0,18.825,15.317,34.142,34.142,34.142
			h443.716c18.825,0,34.142-15.317,34.142-34.142v-42.658C568,263.556,564.177,259.733,559.467,259.733z M550.933,310.925
			c0,9.421-7.663,17.075-17.075,17.075H90.142c-9.412,0-17.075-7.654-17.075-17.075V276.8h477.867L550.933,310.925L550.933,310.925z
			"/>
	</g>
</g>
<g>
	<g>
		<path class="st1" d="M337.6,293.867h-51.2c-4.71,0-8.533,3.823-8.533,8.533s3.823,8.533,8.533,8.533h51.2
			c4.71,0,8.533-3.823,8.533-8.533S342.31,293.867,337.6,293.867z"/>
	</g>
</g>
<g>
	<g>
		<path class="st1" d="M525.333-13.333H98.667c-4.71,0-8.533,3.823-8.533,8.533v273.067c0,4.71,3.823,8.533,8.533,8.533h426.667
			c4.71,0,8.533-3.823,8.533-8.533V-4.8C533.867-9.51,530.044-13.333,525.333-13.333z M516.8,259.733H107.2v-256h409.6
			L516.8,259.733L516.8,259.733z"/>
	</g>
</g>
<g>
	<g>
		<path class="st1" d="M422.933,396.267H201.067c-14.114,0-25.6,11.486-25.6,25.6s11.486,25.6,25.6,25.6h221.867
			c14.114,0,25.6-11.486,25.6-25.6S437.047,396.267,422.933,396.267z M422.933,430.4H201.067c-4.71,0-8.533-3.831-8.533-8.533
			s3.823-8.533,8.533-8.533h221.867c4.71,0,8.533,3.831,8.533,8.533S427.644,430.4,422.933,430.4z"/>
	</g>
</g>
<g>
	<g>
		<path class="st1" d="M405.867,396.267c-28.314,0-42.667-20.096-42.667-59.733c0-4.71-3.823-8.533-8.533-8.533h-85.333
			c-4.71,0-8.533,3.823-8.533,8.533c0,39.637-14.353,59.733-42.667,59.733c-4.71,0-8.533,3.823-8.533,8.533s3.823,8.533,8.533,8.533
			h187.733c4.71,0,8.533-3.823,8.533-8.533S410.577,396.267,405.867,396.267z M259.699,396.267
			c10.505-11.639,16.691-28.971,17.937-51.2h68.736c1.237,22.229,7.424,39.561,17.937,51.2H259.699z"/>
	</g>
</g>
<g>
	<g>
		<path class="st1" d="M463.757,203.959l-20.599-20.599l11.46-11.46c2.125-2.125,2.978-5.214,2.244-8.124
			c-0.734-2.91-2.944-5.214-5.82-6.084l-85.333-25.6c-3.012-0.905-6.263-0.077-8.482,2.142c-2.227,2.219-3.046,5.478-2.142,8.482
			l25.6,85.333c0.862,2.884,3.174,5.094,6.084,5.828c2.901,0.717,5.999-0.12,8.124-2.244l12.066-12.075l20.599,20.608
			c1.596,1.604,3.772,2.5,6.033,2.5s4.437-0.896,6.033-2.5l24.132-24.141C467.093,212.689,467.093,207.296,463.757,203.959z
			 M433.591,222.067l-18.756-18.765c-2.176-2.176-5.026-3.26-7.876-3.26c-2.859,0-5.709,1.092-7.876,3.251l-6.161,6.161
			l-16.939-56.465l56.465,16.939l-6.605,6.605c-1.818,1.826-2.816,4.25-2.816,6.827c0,2.586,1.007,5.026,2.833,6.835l19.797,19.797
			L433.591,222.067z"/>
	</g>
</g>
<g>
	<g>
		<path class="st1" d="M414.4,20.8H175.467c-4.71,0-8.533,3.823-8.533,8.533V72c0,4.71,3.823,8.533,8.533,8.533H414.4
			c4.71,0,8.533-3.823,8.533-8.533V29.333C422.933,24.623,419.11,20.8,414.4,20.8z M405.867,63.467H184v-25.6h221.867V63.467z"/>
	</g>
</g>
<g>
	<g>
		<path class="st1" d="M277.867,114.667H209.6c-4.71,0-8.533,3.823-8.533,8.533v34.133c0,4.71,3.823,8.533,8.533,8.533h68.267
			c4.71,0,8.533-3.823,8.533-8.533V123.2C286.4,118.49,282.577,114.667,277.867,114.667z M269.333,148.8h-51.2v-17.067h51.2V148.8z"
			/>
	</g>
</g>
<g>
	<g>
		<path class="st1" d="M414.4,20.8H175.467c-4.71,0-8.533,3.823-8.533,8.533v162.133c0,4.71,3.823,8.533,8.533,8.533h203.145
			c2.705,0,5.239-1.271,6.844-3.439c1.613-2.167,2.108-4.966,1.331-7.552l-10.803-36.019l35.968,10.795
			c2.586,0.777,5.385,0.282,7.543-1.331c2.167-1.604,3.439-4.147,3.439-6.844V29.333C422.933,24.623,419.11,20.8,414.4,20.8z
			 M405.867,144.141L365.7,132.092c-3.012-0.905-6.263-0.077-8.482,2.142c-2.227,2.227-3.046,5.478-2.142,8.491l12.066,40.209H184
			V37.867h221.867V144.141z"/>
	</g>
</g>
<polygon class="st2" points="375.984,152.989 392.922,209.454 406.959,200.042 433.591,222.067 445.657,209.992 423.027,183.36 
	432.448,169.928 "/>
</svg>
