<?xml version="1.0" encoding="utf-8"?>
<!-- Generator: Adobe Illustrator 19.0.1, SVG Export Plug-In . SVG Version: 6.00 Build 0)  -->
<svg version="1.1" id="icon-girl" xmlns="http://www.w3.org/2000/svg" xmlns:xlink="http://www.w3.org/1999/xlink" x="0px" y="0px"
	 width="512px" height="512px" viewBox="56 -56 512 512" style="enable-background:new 56 -56 512 512;" xml:space="preserve">
<style type="text/css">
	.st0{fill:#412937;}
	.st1{fill:#FB4F5D;}
</style>
<g>
	<path class="st0" d="M479.186,310.807c-6.749-33.805-38.461-39.559-38.561-39.605v0.001c-0.341-0.1,2.909,0.715-77.341-19.177
		v-2.723h59.075c12.177,0,22.083-9.907,22.083-22.083V114.554c0.993-4.189,0.995-8.544,0-12.742V60.693
		c0-4.144-3.359-7.501-7.501-7.501c-4.144,0-7.501,3.357-7.501,7.501V82.22c-3.96-2.364-8.483-4.059-13.357-4.898
		c-1.76-7.817-8.252-13.997-16.485-15.078c-8.582-1.128-15.086-6.131-19.331-14.869c-1.987-4.091-5.879-6.778-10.409-7.19
		c-4.534-0.41-8.827,1.527-11.514,5.185c-12.894,17.548-48.739,56.907-110.636,56.905c-4.709,0-7.902-0.223-9.014-0.273
		c-11.374-0.685-20.991,8.403-20.991,19.8v17.235c0,27.547,11.428,54.253,31.352,73.269c6.608,6.307,13.897,11.568,21.67,15.763
		v6.234H211.92c-3.905,0-7.082-3.177-7.082-7.081V58.672c0-54.643,44.553-99.669,98.371-99.669c0.174,0,0.348,0.001,0.521,0.002
		c19.282,0.103,41.545,5.58,56.716,13.949c9.615,5.307,15.554,1.089,25.049,1.089c23.175,0,41.747,23.83,43.973,45.263
		c0.014,0.314,0.047,1.571,0.051,6.387c0.005,7.241,8.183,7.797,7.507,7.495c4.144-0.003,7.498-3.365,7.495-7.507
		c-0.001-1.332,0.01-6.555-0.115-7.767c-3.016-29.837-28.467-58.873-58.91-58.873c-11.89,0-13.743,3.014-17.802,0.778
		c-17.203-9.491-42.279-15.7-63.883-15.816C241.539-56.4,189.835-4.523,189.835,58.671v168.55c0,12.177,9.907,22.083,22.084,22.083
		h58.806v2.723l-77.038,19.093c-0.102,0.025-0.202,0.054-0.303,0.083l-5.628,1.66c-0.169,0.05-0.335,0.105-0.5,0.166
		c-10.044,3.748-27.613,13.639-32.434,37.782c-22.83,114.682-21.869,109.785-21.924,110.178c-2.75,19.451,6.987,35.01,30.41,35.01
		h81.115c4.144,0,7.501-3.358,7.501-7.501c0-4.144-3.358-7.501-7.501-7.501h-28.227v-70.75c0-4.144-3.358-7.501-7.501-7.501
		s-7.501,3.358-7.501,7.501v70.75h-37.886c-9.964,0-15.75-3.208-15.846-13.675c-0.042-5.106-0.243-0.129,22.073-113.578
		c3.359-16.823,15.575-23.85,22.732-26.571l5.202-1.534l44.24-10.965c49.213,57.976,46.299,54.904,49.143,57.678
		c16.426,16.023,39.864,14.892,55.29-3.224l46.325-54.413l44.071,10.923c1.275,0.586,23.213,4.445,27.936,28.103
		c22.124,112.467,22.116,108.451,22.074,113.575c-0.076,10.252-5.622,13.682-15.846,13.682h-37.617v-70.751
		c0-4.144-3.357-7.501-7.501-7.501s-7.501,3.358-7.501,7.501v70.75H279.428c-4.144,0-7.501,3.358-7.501,7.501
		c0,4.144,3.358,7.501,7.501,7.501h191.275c18.532,0,30.677-10.197,30.848-28.563C501.614,418.859,501.103,422.957,479.186,310.807z
		 M416.574,92.797c6.264,1.863,11.095,5.991,12.867,11.089v8.594c-1.772,5.099-6.603,9.227-12.867,11.089V92.797z M416.574,140.343
		v-1.385c4.688-0.866,9.041-2.526,12.867-4.811v93.074c0,3.905-3.177,7.08-7.081,7.08h-59.076v-5.797
		C395.088,211.877,416.574,178.586,416.574,140.343z M259.414,201.452c-16.973-16.201-26.707-38.95-26.707-62.417
		c0.446-16.332-1.081-18.311,1.525-20.765c0.923-0.87,2.164-1.375,3.561-1.295c53.784,3.238,100.044-20.406,130.586-59.994
		c8.235,14.46,20.312,18.962,29.266,20.139c2.238,0.294,3.927,2.204,3.927,4.445c0,20.751,0,38.177,0,58.779
		C401.572,214.98,312.22,251.851,259.414,201.452z M334.717,319.402c-10.451,12.277-25.081,12.244-35.507-0.062l-15.651-18.473
		h66.938L334.717,319.402z M363.271,285.864H270.85l-12.891-15.216l22.074-5.472c3.348-0.829,5.696-3.907,5.696-7.355l0.001-23.206
		c20.64,6.88,42.437,6.805,62.552,0.214c0.141,23.975-0.322,23.426,0.418,25.541c0.818,2.338,2.767,4.183,5.277,4.805l22.219,5.507
		L363.271,285.864z"/>
</g>
<path class="st1" d="M272.038,448.497c0-4.143,3.357-7.501,7.501-7.501h138.655v-70.75c0-4.143,3.357-7.501,7.501-7.501
	s7.501,3.357,7.501,7.501v70.751h37.617c10.224,0,15.77-3.43,15.846-13.682c0.042-5.124,0.05-1.108-22.074-113.575
	c-4.723-23.658-26.661-27.517-27.936-28.103l-44.071-10.923l-46.325,54.413c-15.426,18.116-38.864,19.247-55.29,3.224
	c-2.844-2.774,0.07,0.298-49.143-57.678l-44.24,10.965l-5.202,1.534c-7.157,2.721-19.373,9.748-22.732,26.571
	c-22.316,113.449-22.115,108.472-22.073,113.578c0.096,10.467,5.882,13.675,15.846,13.675h37.886v-70.75
	c0-4.143,3.358-7.501,7.501-7.501s7.501,3.357,7.501,7.501v70.75h28.227c4.143,0,7.501,3.357,7.501,7.501
	c0,2.784-3.668,6.207-5.92,7.502h31.75C275.615,454.705,272.038,451.281,272.038,448.497z"/>
</svg>
