<?xml version="1.0" encoding="utf-8"?>
<!-- Generator: Adobe Illustrator 19.0.1, SVG Export Plug-In . SVG Version: 6.00 Build 0)  -->
<svg version="1.1" id="icon-graduate" xmlns="http://www.w3.org/2000/svg" xmlns:xlink="http://www.w3.org/1999/xlink" x="0px"
	 y="0px" width="512px" height="512px" viewBox="56 -56 512 512" style="enable-background:new 56 -56 512 512;"
	 xml:space="preserve">
<style type="text/css">
	.st0{fill:#503A47;}
	.st1{fill:#412937;}
	.st2{fill:#FB4F5D;}
</style>
<polygon class="st0" points="86.848,71.999 312,-21.168 537.152,71.999 312,165.166 "/>
<g>
	<g>
		<g>
			<path class="st1" d="M416.465,387.988c-4.574-1.161-9.207,1.638-10.342,6.204l-8.533,34.133
				c-1.152,4.582,1.638,9.207,6.212,10.351c0.691,0.179,1.391,0.256,2.074,0.256c3.823,0,7.296-2.586,8.269-6.46l8.533-34.133
				C423.821,393.765,421.039,389.132,416.465,387.988z"/>
			<path class="st1" d="M312,217.066c1.109,0,2.219-0.213,3.26-0.648l93.867-38.844c4.352-1.801,6.417-6.793,4.617-11.145
				c-1.801-4.361-6.81-6.409-11.153-4.625L312,199.299L73.067,100.432v-2.833c0-4.71-3.823-8.533-8.533-8.533
				c-4.71,0-8.534,3.823-8.534,8.533v8.533c0,3.456,2.082,6.571,5.274,7.885l247.467,102.4
				C309.781,216.852,310.891,217.066,312,217.066z"/>
			<path class="st1" d="M413.513,304.49c-2.082-4.224-7.185-5.965-11.426-3.874c-16.205,8.013-43.273,17.331-81.553,18.603v-76.553
				c0-4.71-3.823-8.533-8.533-8.533s-8.533,3.823-8.533,8.533v76.476c-105.958-3.379-140.151-67.567-145.067-78.251v-57.958
				c0-4.71-3.823-8.533-8.533-8.533c-4.71,0-8.533,3.823-8.533,8.533v59.733c0,1.084,0.205,2.159,0.606,3.174
				c1.485,3.695,37.803,90.692,170.061,90.692c46.225,0,78.618-11.213,97.647-20.617
				C413.879,313.825,415.612,308.714,413.513,304.49z"/>
			<path class="st1" d="M440,396.266c-4.719,0-8.533,3.823-8.533,8.533v25.6c0,4.71,3.814,8.533,8.533,8.533
				s8.533-3.823,8.533-8.533v-25.6C448.533,400.089,444.719,396.266,440,396.266z"/>
			<path class="st1" d="M559.467,89.066c-4.719,0-8.533,3.823-8.533,8.533v2.816l-102.4,42.146v-15.42l114.193-47.258
				c3.191-1.314,5.274-4.429,5.274-7.885s-2.082-6.562-5.265-7.885L315.26-38.286c-2.091-0.862-4.429-0.862-6.519,0L61.274,64.114
				C58.082,65.437,56,68.543,56,71.999s2.082,6.571,5.274,7.885l247.467,102.4c1.041,0.435,2.15,0.649,3.26,0.649
				s2.219-0.213,3.26-0.649l89.481-37.026c4.361-1.792,6.426-6.784,4.625-11.145c-1.801-4.352-6.793-6.409-11.145-4.617L312,165.166
				L86.848,71.999L312-21.168l225.152,93.167l-97.971,40.542L345.34,77.503c0.495-1.775,0.794-3.601,0.794-5.504
				c0-14.353-14.993-25.6-34.133-25.6s-34.133,11.247-34.133,25.6s14.993,25.6,34.133,25.6c8.542,0,16.162-2.33,22.084-6.084
				l97.382,36.361v27.341v0.009v182.878c-9.907,3.541-17.067,12.919-17.067,24.03c0,14.114,11.486,25.6,25.6,25.6
				s25.6-11.486,25.6-25.6c0-11.11-7.159-20.488-17.067-24.03v-48.435c24.499-18.492,33.28-43.119,33.664-44.211
				c0.307-0.896,0.469-1.843,0.469-2.79v-59.733c0-4.71-3.814-8.533-8.533-8.533s-8.533,3.823-8.533,8.533v58.155
				c-1.476,3.618-6.605,14.771-17.067,25.779v-105.85l114.185-46.993c3.2-1.314,5.282-4.437,5.282-7.893V97.6
				C568,92.889,564.186,89.066,559.467,89.066z M312,80.532c-10.419,0-17.067-5.052-17.067-8.533c0-3.482,6.647-8.533,17.067-8.533
				s17.067,5.052,17.067,8.533C329.067,75.481,322.419,80.532,312,80.532z M440,370.666c-4.71,0-8.533-3.831-8.533-8.533
				S435.29,353.6,440,353.6s8.533,3.831,8.533,8.533C448.533,366.834,444.71,370.666,440,370.666z"/>
			<path class="st1" d="M473.877,394.192c-1.143-4.565-5.786-7.356-10.342-6.204c-4.574,1.143-7.356,5.777-6.212,10.351
				l8.533,34.133c0.973,3.874,4.446,6.46,8.269,6.46c0.683,0,1.382-0.077,2.074-0.256c4.574-1.143,7.356-5.769,6.212-10.351
				L473.877,394.192z"/>
		</g>
	</g>
</g>
<circle class="st2" cx="440" cy="362.133" r="8.533"/>
</svg>
