<?xml version="1.0" encoding="utf-8"?>
<!-- Generator: Adobe Illustrator 21.0.0, SVG Export Plug-In . SVG Version: 6.00 Build 0)  -->
<svg version="1.1" id="Слой_1" xmlns="http://www.w3.org/2000/svg" xmlns:xlink="http://www.w3.org/1999/xlink" x="0px" y="0px"
	 viewBox="0 0 132 38" style="enable-background:new 0 0 132 38;" xml:space="preserve">
<style type="text/css">
	.st0{fill:#FFFFFF;}
</style>
<g>
	<path class="st0" d="M11.5,32.3C21.8,28.8,19,6.2,14.3,3l0.3-0.4c0.3,0,0.5,0,0.8,0c0,0,3.4,2.4,4.4,4.9c-0.9-3.1-3.7-5-3.6-5
		c12.6,2.8,12.9,35-1.1,34.4c-14-0.7-14.4-16.8-14.4-21C0.8,11.6,2.5,5.2,2.5,5.2S2.1,3.9,2.4,3.7c1.3-1.2,7.9-1.1,7.9,3.2
		C10.3,8.2,5.8,24.7,11.5,32.3z"/>
	<path class="st0" d="M44.6,24.6c1.8,3.3,2.6,7.4,2,10.3c0.3-4.5-1.7-7.6-1.7-7.6s1.8,6.1,1.2,8.2c-0.1-0.1-0.2-0.3-0.2-0.3
		s-0.6,1-0.9,1c-0.3,0-1.2,0.3-1.2,0.3L43.3,36c-1-3.7-3.2-7.1-5.3-9.8c-1.7,0.2-3.3,0.3-4.3,0.3c-0.1,0-0.2,0-0.3,0
		c-0.2,3-0.3,4.9-0.3,4.9s-0.3,0.6-0.8,1.3c-0.3,0.4-1,1.9-1,1.9s-0.6,0.2-0.9,0.6c-0.1,0.1-0.4,1-0.4,1l-0.4,0l-0.6,0.9
		c0,0-0.3-0.2-0.4-0.2c-0.2,0.1-0.4,0.6-0.6,0.6c-0.1-0.8-0.3-6.4-0.5-12.8c-1.5-0.9-2.8-2.4-3.5-4.7c0-0.2-0.3-1.3-0.2-2
		c0.2,1.3,1,3.1,1.4,3.5c-0.9-1.8-1.2-3.6-1-4.7c0.2,0.7,1.3,1.6,3,2.3c-0.1-3.2-0.3-6.3-0.4-8.9c-1,0.1-1.9,0.3-2.9,0.6
		c-1.5-0.6-3-4.7-1.3-6.2C24.4,3.2,51.2-2.9,51,15.6C51,20.4,48.1,23.1,44.6,24.6z M34.1,9.6c0,0.5,0,1.1,0,1.7c0,3-0.2,6.2-0.4,9.2
		c5.8,0,13.2-3.1,13.5-6.2C47.5,11.6,42.7,9.3,34.1,9.6z"/>
	<path class="st0" d="M62.3,36c-6.5,0-13.2-4.8-12.9-15.3C50,2.3,70.2,0,70.1,6.2c0,2.1-1.2,5.4-2.7,6c-7.6-3.9-14,3.2-14.2,9.1
		c-0.1,3,3.6,7.3,8.7,7.3c6.1,0,10.8-6.1,10.8-8.5c0-1.8,1.1,0,1.1,0C76.2,28.7,70.7,36,62.3,36z"/>
	<path class="st0" d="M96.1,11.8c-1.3,10.2-1.2,19.4-1.2,19.4l-0.2,0.5l-0.3,0l-0.3,1.5l-0.3,0L93.5,33L92.8,36l-0.5-0.4L92,36
		l-0.6,0c0,0-0.1,0.7-0.3,0.8c-0.1,0-0.2,0-0.3,0c-1.1-2.7-1.7-6.4-2.1-10.6c-0.2,0.1-0.4,0.2-0.6,0.3c-1.9,0-5.7,0.7-8.4,1.2
		c-0.1,2.2-0.2,3.5-0.2,3.5l-0.3-0.4l-0.2,1.2l-0.6,0.1L77.6,34l-1.4,0.9L75.4,36L75,35.8l-0.4,1.3c0,0-0.4,0.5-0.6,0.6
		c-0.3-2-0.4-28.7-1.5-34.3c0-0.2,0.1-0.6,0.7-0.8c2.1-0.7,7.8-1.6,7.5,7.2c-0.1,3.7-0.3,7.6-0.5,11.1c2.6-0.3,5.7-0.3,8.2-0.1
		C88,13.3,88.4,5.8,88.9,3c2.1-0.9,6.9-0.9,7.7,1.3C97,5.7,96.6,7.7,96.1,11.8z"/>
	<path class="st0" d="M105,10.5c-0.4,9.9-1.4,21.6-1.4,21.6l-0.3-0.4l-0.2,1.2l-0.6,0.1l-0.6,1.8l-1.4,0.8l-0.8,1.1l-0.4-0.3
		l-0.4,1.3c0,0-0.4,0.5-0.6,0.5c-0.3-2-0.2-29-1.3-34.8c0-0.2,0.2-0.6,0.7-0.7C99.7,2.2,105.3,1.6,105,10.5z"/>
	<path class="st0" d="M130.4,35c-0.7,1.9-5.9,4.3-7.2-1.3c-3.3-5.2-6.7-12.2-9.7-18.3c-0.6,8.3-1.4,16-1.4,16l-0.3-0.1l-1.2,2.5
		l-0.7,0.4l-0.6,1.7l-0.6-0.5l-0.7,1.8c0,0-0.6,0-0.9,0.1c-0.2,0.1-0.3,0.2-0.6,0.6c-0.3-2.1,0.3-31-0.9-35.2c0,0,0.8-0.3,2-0.4
		c2.6-1.2,6.3-1,7.5,2.2c2.4,6.7,5.9,14.7,8,19.4c0.6-9.1,2-20.7,2.8-23.9c0.1,0.1,0.2,1.1,0.3,1.2c0.1,0.1,0.3-0.7,0.4-0.6
		c0.1,0.1,0.5,1.8,0.6,2c0.3,0.3,0.9,0.1,0.9,0.1s1.2,2.4,2,4.7c0,0.1,0.1,0.3,0.1,0.5C128.9,32.4,130.9,33.6,130.4,35z"/>
</g>
</svg>
